<svg xmlns="http://www.w3.org/2000/svg" xmlns:xlink="http://www.w3.org/1999/xlink" width="500" zoomAndPan="magnify" viewBox="0 0 375 374.999991" height="500" preserveAspectRatio="xMidYMid meet" version="1.0"><defs><clipPath id="4586595f6d"><path d="M 51.3125 82.144531 L 319.644531 82.144531 L 319.644531 292.855469 L 51.3125 292.855469 Z M 51.3125 82.144531 " clip-rule="nonzero"/></clipPath><clipPath id="9e08cd2082"><path d="M 68.5625 82.144531 L 302.253906 82.144531 C 306.828125 82.144531 311.214844 83.960938 314.449219 87.195312 C 317.6875 90.429688 319.503906 94.816406 319.503906 99.394531 L 319.503906 275.605469 C 319.503906 280.183594 317.6875 284.570312 314.449219 287.804688 C 311.214844 291.039062 306.828125 292.855469 302.253906 292.855469 L 68.5625 292.855469 C 63.988281 292.855469 59.597656 291.039062 56.363281 287.804688 C 53.128906 284.570312 51.3125 280.183594 51.3125 275.605469 L 51.3125 99.394531 C 51.3125 94.816406 53.128906 90.429688 56.363281 87.195312 C 59.597656 83.960938 63.988281 82.144531 68.5625 82.144531 Z M 68.5625 82.144531 " clip-rule="nonzero"/></clipPath><clipPath id="82886e829c"><path d="M 81.527344 104 L 293.777344 104 L 293.777344 268 L 81.527344 268 Z M 81.527344 104 " clip-rule="nonzero"/></clipPath><clipPath id="3d357e83aa"><path d="M 281 104 L 293.777344 104 L 293.777344 123 L 281 123 Z M 281 104 " clip-rule="nonzero"/></clipPath><clipPath id="7c10fb2af0"><path d="M 281 122 L 293.777344 122 L 293.777344 141 L 281 141 Z M 281 122 " clip-rule="nonzero"/></clipPath><clipPath id="e7144b9144"><path d="M 281 140 L 293.777344 140 L 293.777344 160 L 281 160 Z M 281 140 " clip-rule="nonzero"/></clipPath><clipPath id="fb18a2572a"><path d="M 281 159 L 293.777344 159 L 293.777344 178 L 281 178 Z M 281 159 " clip-rule="nonzero"/></clipPath><clipPath id="f8299e932d"><path d="M 281 177 L 293.777344 177 L 293.777344 196 L 281 196 Z M 281 177 " clip-rule="nonzero"/></clipPath><clipPath id="30a36c6abf"><path d="M 281 195 L 293.777344 195 L 293.777344 214 L 281 214 Z M 281 195 " clip-rule="nonzero"/></clipPath><clipPath id="f01e928f17"><path d="M 281 213 L 293.777344 213 L 293.777344 232 L 281 232 Z M 281 213 " clip-rule="nonzero"/></clipPath><clipPath id="dd1e6f82a2"><path d="M 281 231 L 293.777344 231 L 293.777344 250 L 281 250 Z M 281 231 " clip-rule="nonzero"/></clipPath><clipPath id="870593a9ef"><path d="M 281 249 L 293.777344 249 L 293.777344 268 L 281 268 Z M 281 249 " clip-rule="nonzero"/></clipPath><clipPath id="19e9c91063"><path d="M 81.527344 104 L 282 104 L 282 268 L 81.527344 268 Z M 81.527344 104 " clip-rule="nonzero"/></clipPath><clipPath id="ebf04e80b6"><path d="M 81.527344 124 L 236 124 L 236 246 L 81.527344 246 Z M 81.527344 124 " clip-rule="nonzero"/></clipPath></defs><g clip-path="url(#4586595f6d)"><g clip-path="url(#9e08cd2082)"><path fill="#ffffff" d="M 51.3125 82.144531 L 319.644531 82.144531 L 319.644531 292.855469 L 51.3125 292.855469 Z M 51.3125 82.144531 " fill-opacity="1" fill-rule="nonzero"/></g></g><g clip-path="url(#82886e829c)"><path fill="#ffffff" d="M 312.140625 267.539062 L 59.78125 267.539062 L 59.78125 104.773438 L 312.105469 104.773438 L 312.105469 267.539062 Z M 312.140625 267.539062 " fill-opacity="1" fill-rule="nonzero"/></g><g clip-path="url(#3d357e83aa)"><path fill="#ef7e00" d="M 281.539062 104.773438 L 312.105469 104.773438 L 312.105469 122.839844 L 281.539062 122.839844 Z M 281.539062 104.773438 " fill-opacity="1" fill-rule="nonzero"/></g><g clip-path="url(#7c10fb2af0)"><path fill="#f8b616" d="M 281.539062 122.839844 L 312.105469 122.839844 L 312.105469 140.941406 L 281.539062 140.941406 Z M 281.539062 122.839844 " fill-opacity="1" fill-rule="nonzero"/></g><g clip-path="url(#e7144b9144)"><path fill="#ccb3d6" d="M 281.539062 140.941406 L 312.105469 140.941406 L 312.105469 159.039062 L 281.539062 159.039062 Z M 281.539062 140.941406 " fill-opacity="1" fill-rule="nonzero"/></g><g clip-path="url(#fb18a2572a)"><path fill="#7a81be" d="M 281.539062 159.007812 L 312.105469 159.007812 L 312.105469 177.074219 L 281.539062 177.074219 Z M 281.539062 159.007812 " fill-opacity="1" fill-rule="nonzero"/></g><g clip-path="url(#f8299e932d)"><path fill="#81cff4" d="M 281.539062 177.074219 L 312.105469 177.074219 L 312.105469 195.175781 L 281.539062 195.175781 Z M 281.539062 177.074219 " fill-opacity="1" fill-rule="nonzero"/></g><g clip-path="url(#30a36c6abf)"><path fill="#0096d9" d="M 281.539062 195.175781 L 312.105469 195.175781 L 312.105469 213.273438 L 281.539062 213.273438 Z M 281.539062 195.175781 " fill-opacity="1" fill-rule="nonzero"/></g><g clip-path="url(#f01e928f17)"><path fill="#ffd700" d="M 281.539062 213.242188 L 312.105469 213.242188 L 312.105469 231.308594 L 281.539062 231.308594 Z M 281.539062 213.242188 " fill-opacity="1" fill-rule="nonzero"/></g><g clip-path="url(#dd1e6f82a2)"><path fill="#a7ce58" d="M 281.539062 231.339844 L 312.105469 231.339844 L 312.105469 249.441406 L 281.539062 249.441406 Z M 281.539062 231.339844 " fill-opacity="1" fill-rule="nonzero"/></g><g clip-path="url(#870593a9ef)"><path fill="#00a84d" d="M 281.539062 249.410156 L 312.105469 249.410156 L 312.105469 267.507812 L 281.539062 267.507812 Z M 281.539062 249.410156 " fill-opacity="1" fill-rule="nonzero"/></g><g clip-path="url(#19e9c91063)"><path fill="#005aa1" d="M 59.78125 104.773438 L 281.539062 104.773438 L 281.539062 267.539062 L 59.78125 267.539062 Z M 59.78125 104.773438 " fill-opacity="1" fill-rule="nonzero"/></g><g clip-path="url(#ebf04e80b6)"><path fill="#ffffff" d="M 160.046875 198.984375 L 157.25 198.984375 L 217.539062 221.867188 C 159.753906 263.015625 67.011719 207.675781 86.769531 149.535156 C 72.347656 202.953125 154.9375 245.5 198.070312 219.949219 L 154.449219 198.984375 L 150.804688 198.984375 L 179.90625 218.320312 C 141.394531 229.714844 91.394531 195.5 91.394531 159.753906 C 91.394531 132.769531 121.503906 115.9375 168.742188 133.125 C 123.523438 113.234375 77.132812 127.332031 76.777344 166.460938 C 76.191406 233.261719 180.070312 273.988281 235.964844 222.292969 Z M 160.046875 198.984375 " fill-opacity="1" fill-rule="nonzero"/></g><path fill="#ffffff" d="M 181.597656 140.613281 C 178.996094 137.75 175.21875 136.1875 170.890625 136.1875 C 162.488281 136.1875 155.328125 142.46875 154.546875 150.476562 C 154.1875 154.285156 155.296875 157.800781 157.671875 160.40625 C 160.210938 163.207031 164.019531 164.769531 168.285156 164.769531 C 176.945312 164.769531 184.007812 158.648438 184.757812 150.574219 C 185.113281 146.800781 184.007812 143.25 181.597656 140.613281 M 168.511719 162.097656 C 166.101562 162.097656 164.019531 161.15625 162.488281 159.460938 C 160.570312 157.347656 159.691406 154.125 160.046875 150.347656 C 160.667969 143.640625 165.027344 138.886719 170.628906 138.886719 C 173.070312 138.886719 175.152344 139.863281 176.714844 141.558594 C 178.636719 143.707031 179.515625 146.863281 179.191406 150.542969 C 178.539062 157.214844 174.046875 162.097656 168.511719 162.097656 " fill-opacity="1" fill-rule="nonzero"/><path fill="#ffffff" d="M 194.199219 139.117188 L 196.183594 139.117188 C 196.898438 139.117188 198.722656 139.214844 199.828125 140.417969 C 200.449219 141.101562 200.773438 142.046875 200.773438 143.21875 C 200.773438 143.445312 200.773438 143.675781 200.742188 143.902344 C 200.253906 148.980469 195.566406 149.242188 194.621094 149.242188 L 193.222656 149.242188 C 193.285156 148.589844 194.132812 139.703125 194.199219 139.117188 M 204.160156 154.839844 C 203.28125 152.234375 201.292969 151.03125 199.570312 150.445312 C 200.285156 150.316406 200.707031 150.21875 201.488281 149.890625 C 203.964844 148.851562 205.6875 146.765625 205.949219 143.835938 C 205.980469 143.609375 205.980469 143.382812 205.980469 143.152344 C 205.980469 141.234375 205.199219 139.507812 203.769531 138.367188 C 202.011719 137.03125 200.414062 136.609375 196.835938 136.609375 L 187.847656 136.609375 L 187.652344 137.554688 C 188.824219 138.007812 189.214844 138.53125 188.957031 141.003906 L 187.132812 160.046875 C 186.9375 162.488281 186.1875 163.011719 185.179688 163.402344 L 185.34375 164.378906 L 193.320312 164.410156 L 193.480469 163.433594 C 192.925781 163.238281 192.570312 163.074219 192.4375 162.78125 C 192.210938 162.328125 192.082031 161.773438 192.082031 160.960938 C 192.082031 160.667969 192.113281 160.339844 192.144531 159.984375 C 192.144531 159.984375 192.765625 153.179688 192.925781 151.714844 L 194.359375 151.714844 C 195.53125 151.714844 197.648438 151.746094 199.015625 155.199219 L 200.609375 160.242188 C 201.652344 163.464844 202.335938 164.410156 204.515625 164.410156 L 208.390625 164.410156 L 208.652344 163.433594 C 207.835938 163.207031 207.382812 163.042969 207.023438 162.554688 C 206.4375 161.773438 205.917969 160.503906 205.492188 159.136719 L 204.90625 157.28125 Z M 204.160156 154.839844 " fill-opacity="1" fill-rule="nonzero"/><path fill="#ffffff" d="M 157.347656 170.433594 L 159.332031 170.433594 C 160.046875 170.433594 161.871094 170.53125 162.945312 171.734375 C 163.5625 172.417969 163.890625 173.363281 163.890625 174.535156 C 163.890625 174.761719 163.890625 174.992188 163.855469 175.21875 C 163.367188 180.296875 158.679688 180.558594 157.738281 180.558594 L 156.371094 180.558594 C 156.433594 179.875 157.28125 171.019531 157.347656 170.433594 M 167.339844 186.125 C 166.460938 183.488281 164.476562 182.316406 162.75 181.730469 C 163.433594 181.597656 163.890625 181.5 164.671875 181.175781 C 167.144531 180.132812 168.871094 178.019531 169.164062 175.121094 C 169.195312 174.894531 169.195312 174.664062 169.195312 174.4375 C 169.195312 172.515625 168.414062 170.792969 166.984375 169.652344 C 165.222656 168.316406 163.628906 167.894531 160.046875 167.894531 L 151.0625 167.894531 L 150.867188 168.871094 C 152.039062 169.328125 152.429688 169.847656 152.171875 172.320312 L 150.347656 191.363281 C 150.152344 193.839844 149.402344 194.359375 148.394531 194.71875 L 148.558594 195.726562 L 156.5 195.726562 L 156.664062 194.71875 C 156.109375 194.523438 155.75 194.359375 155.621094 194.066406 C 155.394531 193.609375 155.261719 193.058594 155.261719 192.242188 C 155.261719 191.917969 155.261719 191.59375 155.296875 191.265625 C 155.296875 191.265625 155.914062 184.464844 156.078125 183 L 157.507812 183 C 158.679688 183 160.796875 183.03125 162.164062 186.480469 L 163.757812 191.558594 C 164.800781 194.785156 165.484375 195.726562 167.667969 195.726562 L 171.539062 195.726562 L 171.800781 194.75 C 170.988281 194.523438 170.53125 194.359375 170.171875 193.871094 C 169.585938 193.089844 169.066406 191.820312 168.644531 190.421875 L 168.058594 188.566406 Z M 167.339844 186.125 " fill-opacity="1" fill-rule="nonzero"/><path fill="#ffffff" d="M 234.402344 151.910156 C 234.5625 150.347656 234.953125 149.792969 236.191406 149.175781 L 235.964844 148.265625 L 229.03125 148.265625 L 228.835938 149.207031 C 229.746094 149.632812 230.167969 150.152344 230.167969 151.355469 C 230.167969 151.550781 230.167969 151.78125 230.136719 152.007812 C 230.136719 152.007812 229.519531 159.234375 229.421875 160.179688 C 229.324219 160.242188 229.226562 160.277344 229.226562 160.277344 C 226.101562 161.773438 225.089844 162.035156 222.941406 162.035156 C 220.011719 162.035156 217.503906 161.023438 215.84375 159.203125 C 213.957031 157.117188 213.207031 154.125 213.535156 150.511719 C 214.152344 143.96875 218.871094 138.984375 224.472656 138.984375 C 229.03125 138.984375 232.511719 142.175781 233.035156 146.507812 L 234.042969 146.507812 L 234.5 139.214844 L 234.269531 139.050781 C 230.886719 137.066406 227.957031 136.21875 224.441406 136.21875 C 215.8125 136.21875 208.945312 142.273438 208.195312 150.542969 C 207.804688 154.578125 208.878906 158.128906 211.222656 160.699219 C 213.632812 163.367188 217.40625 164.832031 221.804688 164.832031 C 225.90625 164.832031 230.820312 163.402344 234.074219 161.253906 L 234.5625 160.925781 L 234.304688 160.601562 C 234.109375 160.375 233.75 160.015625 233.75 159.65625 C 233.75 159.527344 233.75 159.398438 233.78125 159.265625 C 233.78125 159.265625 234.402344 151.941406 234.402344 151.910156 " fill-opacity="1" fill-rule="nonzero"/><path fill="#ffffff" d="M 140.679688 174.894531 C 140.417969 177.53125 138.171875 179.386719 135.175781 179.386719 L 132.28125 179.386719 C 132.34375 178.765625 133.09375 170.726562 133.160156 170.207031 L 136.089844 170.207031 C 137.554688 170.207031 138.824219 170.726562 139.703125 171.671875 C 140.386719 172.417969 140.746094 173.394531 140.746094 174.4375 C 140.679688 174.566406 140.679688 174.730469 140.679688 174.894531 M 132.410156 181.828125 L 135.46875 181.828125 C 137.847656 181.828125 139.734375 182.542969 140.875 183.8125 C 141.65625 184.691406 142.078125 185.832031 142.078125 187.101562 C 142.078125 187.328125 142.078125 187.523438 142.046875 187.71875 C 141.722656 191.105469 139.050781 193.21875 135.046875 193.21875 L 131.335938 193.21875 C 131.402344 192.632812 132.34375 182.347656 132.410156 181.828125 M 135.699219 195.761719 C 138.269531 195.761719 139.800781 195.53125 141.394531 194.816406 C 142.535156 194.328125 143.542969 193.675781 144.421875 192.765625 C 145.757812 191.363281 146.472656 189.898438 146.667969 188.109375 C 146.703125 187.847656 146.703125 187.621094 146.703125 187.394531 C 146.703125 184.203125 144.8125 181.632812 141.625 180.621094 C 141.234375 180.492188 141.003906 180.425781 140.582031 180.328125 C 141.167969 180.101562 141.589844 179.9375 142.273438 179.515625 C 144.066406 178.410156 145.367188 176.457031 145.59375 174.273438 C 145.628906 174.113281 145.628906 173.949219 145.628906 173.785156 C 145.628906 171.246094 143.316406 168.707031 140.222656 168.023438 C 139.148438 167.796875 138.203125 167.699219 136.382812 167.699219 L 127.429688 167.699219 L 127.332031 168.609375 C 128.082031 168.804688 128.503906 169.164062 128.503906 170.628906 C 128.503906 170.953125 128.472656 171.34375 128.4375 171.769531 L 126.484375 191.886719 C 126.453125 192.339844 126.386719 192.601562 126.324219 192.925781 C 126.03125 194.394531 125.605469 194.589844 124.824219 194.785156 L 124.761719 195.726562 L 135.699219 195.726562 Z M 135.699219 195.761719 " fill-opacity="1" fill-rule="nonzero"/><path fill="#ffffff" d="M 202.988281 172.125 L 210.734375 196.574219 C 210.734375 196.574219 216.269531 187.003906 217.246094 185.113281 C 217.992188 187.035156 221.21875 196.574219 221.21875 196.574219 L 232.382812 172.515625 C 233.425781 170.238281 234.5 169.292969 235.671875 169.292969 C 236.84375 169.292969 238.242188 170.109375 237.980469 172.808594 L 236.257812 191.070312 C 236.027344 193.515625 235.769531 194.101562 234.171875 194.785156 L 234.335938 195.726562 L 240.097656 195.761719 L 240.292969 194.816406 C 239.609375 194.523438 239.382812 194.328125 239.1875 193.96875 C 239.023438 193.613281 238.957031 193.316406 238.957031 192.730469 C 238.957031 192.339844 238.992188 192.210938 239.054688 191.429688 C 239.933594 182.511719 240.488281 176.128906 240.714844 173.917969 C 241.953125 175.578125 250.644531 186.90625 258.296875 196.769531 L 260.605469 172.679688 C 260.867188 169.914062 261.289062 169.425781 262.820312 168.96875 L 262.691406 167.960938 L 256.636719 167.960938 L 256.441406 168.902344 C 257.1875 169.230469 257.449219 169.488281 257.578125 169.847656 C 257.742188 170.238281 257.773438 170.921875 257.773438 171.734375 C 257.773438 172.027344 257.773438 172.355469 257.742188 172.648438 C 257.742188 172.648438 256.832031 182.445312 256.539062 185.765625 C 255.496094 184.398438 242.765625 167.960938 242.765625 167.960938 L 229.09375 167.960938 L 228.867188 169.292969 C 229.910156 169.488281 230.105469 169.71875 230.039062 170.304688 C 230.007812 170.5625 230.039062 170.5625 229.679688 171.3125 C 229.679688 171.3125 224.570312 182.445312 222.78125 186.320312 C 222.226562 184.496094 220.535156 179.222656 220.4375 178.898438 C 220.632812 178.539062 223.886719 172.0625 223.886719 172.0625 C 224.734375 170.5 225.546875 169.621094 226.492188 169.230469 L 226.359375 167.960938 L 211.582031 167.960938 L 211.125 169.195312 C 212.035156 169.75 212.65625 170.238281 213.175781 172.0625 C 213.175781 172.0625 215.519531 179.90625 215.910156 181.175781 C 214.769531 183.390625 213.664062 185.40625 212.851562 187.003906 C 212.230469 185.015625 208.457031 173.039062 208.457031 173.039062 C 208.226562 172.257812 207.609375 170.5625 207.640625 170.269531 C 207.675781 169.914062 207.738281 169.523438 208.617188 169.328125 L 208.554688 168.058594 L 201.195312 168.058594 L 200.773438 169.195312 L 200.839844 169.261719 C 202.335938 170.042969 202.53125 170.890625 202.988281 172.125 M 218.125 170.726562 C 217.960938 170.074219 218.058594 169.164062 219.621094 169.164062 C 221.152344 169.164062 221.445312 169.816406 221.121094 170.628906 C 220.828125 171.28125 219.230469 174.566406 219.230469 174.566406 C 219.230469 174.566406 218.320312 171.378906 218.125 170.726562 " fill-opacity="1" fill-rule="nonzero"/><path fill="#ffffff" d="M 239.480469 148.101562 L 240.164062 141.003906 C 240.390625 138.628906 240.066406 138.042969 238.828125 137.488281 L 239.1875 136.542969 L 255.820312 136.542969 L 255.429688 140.710938 L 254.453125 140.808594 C 254.257812 140.09375 254.0625 139.832031 253.707031 139.636719 C 253.21875 139.375 252.242188 139.214844 251.296875 139.214844 L 245.242188 139.214844 C 245.175781 139.832031 244.492188 147.222656 244.425781 147.90625 L 248.464844 147.90625 C 249.800781 147.90625 250.253906 147.839844 250.777344 147.546875 C 251.394531 147.289062 251.492188 147.09375 251.785156 146.539062 L 252.761719 146.667969 L 252.242188 151.8125 L 251.296875 151.941406 C 251.199219 151.453125 250.777344 151.03125 250.449219 150.902344 C 250.058594 150.707031 249.570312 150.609375 248.238281 150.609375 L 244.199219 150.609375 C 244.132812 151.195312 243.253906 160.894531 243.191406 161.578125 L 249.3125 161.578125 C 251.070312 161.578125 251.816406 161.449219 252.828125 161.121094 C 253.414062 160.925781 253.964844 160.667969 254.488281 160.046875 L 255.300781 160.535156 L 254.0625 164.3125 L 236.550781 164.3125 L 236.355469 163.402344 C 237.6875 162.847656 238.113281 162.292969 238.339844 159.917969 C 238.339844 159.917969 239.152344 151.195312 239.21875 150.476562 Z M 239.480469 148.101562 " fill-opacity="1" fill-rule="nonzero"/><path fill="#ffffff" d="M 198.167969 171.964844 C 195.597656 169.097656 191.789062 167.535156 187.492188 167.535156 C 179.09375 167.535156 171.898438 173.820312 171.148438 181.828125 C 170.792969 185.636719 171.898438 189.183594 174.273438 191.753906 C 176.8125 194.554688 180.621094 196.117188 184.886719 196.117188 C 193.546875 196.117188 200.609375 189.996094 201.359375 181.925781 C 201.71875 178.148438 200.609375 174.601562 198.167969 171.964844 M 185.082031 193.449219 C 182.671875 193.449219 180.589844 192.503906 179.09375 190.84375 C 177.171875 188.726562 176.292969 185.472656 176.652344 181.730469 C 177.269531 175.023438 181.632812 170.269531 187.230469 170.269531 C 189.671875 170.269531 191.753906 171.246094 193.285156 172.941406 C 195.238281 175.089844 196.117188 178.246094 195.761719 181.925781 C 195.140625 188.53125 190.648438 193.449219 185.082031 193.449219 " fill-opacity="1" fill-rule="nonzero"/><path fill="#ffffff" d="M 137.847656 150.609375 C 136.542969 150.609375 133.09375 150.445312 133.09375 151.8125 C 133.09375 151.8125 132.410156 159.691406 132.410156 159.691406 C 132.378906 159.851562 132.378906 159.984375 132.378906 160.113281 C 132.378906 160.503906 132.734375 160.894531 132.964844 161.121094 L 133.257812 161.449219 L 132.769531 161.773438 C 129.351562 164.019531 124.175781 165.515625 119.878906 165.515625 C 115.289062 165.515625 111.316406 163.988281 108.777344 161.15625 C 106.300781 158.453125 105.195312 153.960938 105.585938 149.695312 C 106.398438 141.003906 113.625 134.65625 122.675781 134.65625 C 126.355469 134.65625 129.449219 135.566406 132.996094 137.652344 L 133.257812 137.847656 L 132.769531 145.238281 L 131.726562 145.238281 C 131.140625 141.101562 127.496094 137.585938 122.742188 137.585938 C 116.816406 137.585938 111.902344 142.828125 111.25 149.695312 C 110.890625 153.472656 111.707031 157.410156 113.660156 159.59375 C 115.417969 161.511719 118.023438 162.585938 121.113281 162.585938 C 123.359375 162.585938 124.433594 162.292969 127.691406 160.730469 C 127.691406 160.730469 127.789062 160.667969 127.917969 160.632812 C 128.015625 159.625 128.699219 151.84375 128.699219 151.84375 C 128.730469 151.617188 128.730469 151.390625 128.730469 151.160156 C 128.730469 149.890625 128.277344 149.339844 127.332031 148.882812 L 127.558594 147.90625 L 138.203125 147.90625 L 138.855469 140.972656 C 139.082031 138.59375 138.757812 138.007812 137.519531 137.457031 L 137.910156 136.511719 L 154.449219 136.511719 L 154.058594 140.679688 L 153.082031 140.777344 C 152.886719 140.058594 152.722656 139.800781 152.332031 139.605469 C 151.8125 139.34375 150.867188 139.179688 149.925781 139.179688 L 143.871094 139.179688 C 143.804688 139.800781 143.121094 147.191406 143.054688 147.875 L 147.058594 147.875 C 148.394531 147.875 148.851562 147.808594 149.371094 147.515625 C 149.957031 147.253906 150.085938 147.058594 150.378906 146.507812 L 151.355469 146.636719 L 150.867188 151.84375 L 149.925781 151.976562 C 149.828125 151.488281 149.4375 151.03125 149.078125 150.933594 C 148.6875 150.738281 148.199219 150.640625 146.832031 150.640625 L 142.828125 150.640625 C 142.761719 151.226562 141.882812 160.925781 141.820312 161.609375 L 147.9375 161.609375 C 149.695312 161.609375 150.445312 161.480469 151.421875 161.15625 C 152.007812 160.960938 152.59375 160.699219 153.082031 160.082031 L 153.894531 160.570312 L 152.660156 164.34375 L 135.144531 164.34375 L 134.949219 163.433594 C 136.285156 162.878906 136.707031 162.328125 136.933594 159.949219 C 136.96875 159.917969 137.78125 151.324219 137.847656 150.609375 " fill-opacity="1" fill-rule="nonzero"/><path fill="#ffffff" d="M 200.578125 204.90625 C 200.449219 206.242188 200.804688 207.445312 201.652344 208.359375 C 202.5625 209.335938 203.929688 209.921875 205.460938 209.921875 C 206.796875 209.921875 208.03125 209.59375 209.171875 209.007812 L 209.238281 208.976562 L 209.238281 208.910156 C 209.628906 206.796875 209.628906 206.796875 209.464844 206.730469 L 209.335938 206.699219 L 209.269531 206.796875 C 208.195312 208.652344 206.664062 208.847656 206.046875 208.847656 C 205.003906 208.847656 204.191406 208.519531 203.605469 207.902344 C 202.921875 207.1875 202.628906 206.015625 202.757812 204.746094 C 202.988281 202.433594 204.582031 200.902344 206.730469 200.902344 C 207.511719 200.902344 208.910156 201.164062 209.53125 202.921875 L 209.5625 203.050781 L 209.691406 203.019531 C 209.824219 202.988281 209.824219 202.988281 209.886719 200.707031 L 209.886719 200.609375 L 209.789062 200.578125 C 208.75 200.058594 207.707031 199.828125 206.503906 199.828125 C 202.953125 199.828125 200.839844 202.367188 200.578125 204.90625 " fill-opacity="1" fill-rule="nonzero"/><path fill="#ffffff" d="M 211.613281 204.777344 C 211.449219 206.113281 211.839844 207.347656 212.65625 208.292969 C 213.535156 209.300781 214.902344 209.886719 216.398438 209.921875 C 219.035156 209.953125 221.933594 208.226562 222.292969 204.941406 C 222.453125 203.574219 222.097656 202.367188 221.28125 201.425781 C 220.371094 200.449219 219.003906 199.828125 217.570312 199.796875 C 214.085938 199.765625 211.90625 202.335938 211.613281 204.777344 M 217.375 200.871094 C 218.125 200.871094 218.773438 201.132812 219.261719 201.652344 C 219.914062 202.367188 220.175781 203.574219 220.046875 204.972656 C 219.816406 207.285156 218.480469 208.8125 216.625 208.8125 C 215.878906 208.8125 215.226562 208.519531 214.738281 207.96875 C 214.316406 207.511719 213.859375 206.730469 213.859375 205.332031 C 213.859375 205.136719 213.859375 204.875 213.890625 204.648438 C 214.152344 202.367188 215.519531 200.871094 217.375 200.871094 " fill-opacity="1" fill-rule="nonzero"/><path fill="#ffffff" d="M 224.992188 199.992188 L 224.929688 200.285156 C 225.125 200.382812 225.1875 200.511719 225.1875 200.742188 L 224.40625 208.976562 C 224.375 209.203125 224.277344 209.367188 224.050781 209.464844 L 224.113281 209.789062 L 230.105469 209.789062 L 230.625 208.097656 L 230.332031 207.96875 C 229.875 208.714844 229.453125 208.714844 227.921875 208.78125 C 227.890625 208.78125 226.652344 208.714844 226.652344 208.714844 C 226.652344 208.714844 226.589844 208.714844 226.523438 208.714844 C 226.554688 208.421875 227.304688 200.804688 227.304688 200.804688 C 227.335938 200.578125 227.433594 200.414062 227.628906 200.316406 L 227.566406 200.023438 L 224.992188 200.023438 Z M 226.945312 200.742188 Z M 226.945312 200.742188 " fill-opacity="1" fill-rule="nonzero"/><path fill="#ffffff" d="M 233.390625 199.992188 L 233.328125 200.285156 C 233.523438 200.382812 233.621094 200.511719 233.585938 200.742188 L 232.773438 208.976562 C 232.742188 209.203125 232.644531 209.367188 232.414062 209.464844 L 232.480469 209.789062 L 238.46875 209.789062 L 238.957031 208.066406 L 238.699219 207.933594 C 238.210938 208.683594 237.820312 208.683594 236.289062 208.75 C 236.257812 208.75 234.988281 208.683594 234.988281 208.683594 C 234.988281 208.683594 234.921875 208.683594 234.890625 208.683594 C 234.921875 208.390625 235.671875 200.773438 235.671875 200.773438 C 235.703125 200.546875 235.800781 200.382812 235.996094 200.285156 L 235.929688 199.992188 Z M 233.390625 199.992188 " fill-opacity="1" fill-rule="nonzero"/><path fill="#ffffff" d="M 247.421875 199.992188 L 241.824219 199.992188 L 241.757812 200.285156 C 241.953125 200.382812 242.050781 200.546875 242.019531 200.742188 L 241.203125 208.976562 C 241.171875 209.238281 241.042969 209.335938 240.8125 209.464844 L 240.292969 209.789062 L 247 209.789062 L 247.488281 208.066406 L 247.226562 207.933594 C 246.707031 208.714844 246.21875 208.714844 245.144531 208.75 L 244.980469 208.75 C 244.363281 208.78125 243.679688 208.75 243.351562 208.683594 C 243.386719 208.421875 243.679688 205.136719 243.710938 204.875 L 245.664062 204.875 C 245.761719 204.875 245.925781 205.039062 245.957031 205.167969 L 246.28125 205.136719 L 246.445312 203.636719 L 246.121094 203.539062 C 246.054688 203.671875 245.859375 203.832031 245.730469 203.832031 L 243.808594 203.832031 C 243.839844 203.539062 244.070312 201.164062 244.070312 200.9375 C 244.328125 200.9375 246.28125 200.96875 246.28125 200.96875 C 246.804688 201 247 201.097656 247.195312 201.390625 L 247.457031 201.816406 L 247.585938 199.925781 L 247.421875 199.925781 Z M 247.421875 199.992188 " fill-opacity="1" fill-rule="nonzero"/><path fill="#ffffff" d="M 249.410156 204.90625 C 249.277344 206.242188 249.667969 207.445312 250.484375 208.359375 C 251.394531 209.335938 252.828125 209.921875 254.355469 209.921875 C 255.527344 209.921875 257.578125 209.496094 258.785156 208.878906 L 258.980469 208.78125 L 258.816406 208.617188 C 258.785156 208.585938 258.6875 208.390625 258.71875 208.195312 L 258.914062 206.113281 C 258.945312 205.882812 259.042969 205.722656 259.273438 205.589844 L 259.792969 205.296875 L 256.148438 205.296875 L 256.636719 205.589844 C 256.796875 205.6875 256.863281 205.820312 256.863281 205.980469 C 256.863281 206.015625 256.863281 206.046875 256.863281 206.078125 C 256.863281 206.078125 256.667969 208.261719 256.636719 208.421875 C 256.050781 208.75 255.332031 208.8125 254.941406 208.8125 C 253.902344 208.8125 253.085938 208.488281 252.5 207.871094 C 251.851562 207.152344 251.558594 205.980469 251.65625 204.710938 C 251.882812 202.402344 253.476562 200.871094 255.625 200.871094 C 255.855469 200.871094 257.871094 200.9375 258.425781 202.953125 L 258.71875 202.921875 L 258.816406 200.609375 L 258.71875 200.578125 C 257.613281 200.058594 256.539062 199.828125 255.429688 199.828125 C 251.816406 199.828125 249.667969 202.367188 249.410156 204.90625 " fill-opacity="1" fill-rule="nonzero"/><path fill="#ffffff" d="M 267.671875 199.992188 L 262.039062 199.992188 L 261.972656 200.285156 C 262.203125 200.382812 262.265625 200.546875 262.265625 200.742188 L 261.453125 208.976562 C 261.421875 209.238281 261.289062 209.335938 261.0625 209.464844 L 260.507812 209.789062 L 267.246094 209.789062 L 267.734375 208.066406 L 267.476562 207.933594 C 266.921875 208.714844 266.464844 208.714844 265.359375 208.75 L 265.195312 208.75 C 264.578125 208.78125 263.894531 208.714844 263.570312 208.683594 C 263.601562 208.421875 263.925781 205.136719 263.960938 204.875 L 265.945312 204.875 C 266.042969 204.875 266.207031 205.039062 266.269531 205.167969 L 266.5625 205.136719 L 266.695312 203.636719 L 266.402344 203.539062 C 266.335938 203.671875 266.109375 203.832031 266.011719 203.832031 L 264.089844 203.832031 C 264.121094 203.539062 264.351562 201.164062 264.382812 200.9375 C 264.644531 200.9375 266.597656 200.96875 266.597656 200.96875 C 267.117188 201 267.34375 201.097656 267.539062 201.390625 L 267.800781 201.816406 L 267.929688 199.925781 L 267.671875 199.925781 Z M 267.671875 199.992188 " fill-opacity="1" fill-rule="nonzero"/></svg>