<svg xmlns="http://www.w3.org/2000/svg" xmlns:xlink="http://www.w3.org/1999/xlink" width="500" zoomAndPan="magnify" viewBox="0 0 375 374.999991" height="500" preserveAspectRatio="xMidYMid meet" version="1.0"><defs><g/><clipPath id="ceed282d35"><path d="M 13.5 -8.058594 L 361.5 -8.058594 C 366.074219 -8.058594 370.460938 -6.242188 373.699219 -3.007812 C 376.933594 0.226562 378.75 4.613281 378.75 9.191406 L 378.75 365.25 C 378.75 369.824219 376.933594 374.210938 373.699219 377.449219 C 370.460938 380.683594 366.074219 382.5 361.5 382.5 L 13.5 382.5 C 8.925781 382.5 4.539062 380.683594 1.300781 377.449219 C -1.933594 374.210938 -3.75 369.824219 -3.75 365.25 L -3.75 9.191406 C -3.75 4.613281 -1.933594 0.226562 1.300781 -3.007812 C 4.539062 -6.242188 8.925781 -8.058594 13.5 -8.058594 Z M 13.5 -8.058594 " clip-rule="nonzero"/></clipPath><clipPath id="4bff032f30"><path d="M 126.375 52.675781 L 252.347656 52.675781 L 252.347656 189.175781 L 126.375 189.175781 Z M 126.375 52.675781 " clip-rule="nonzero"/></clipPath></defs><rect x="-37.5" width="450" fill="#ffffff" y="-37.499999" height="449.999989" fill-opacity="1"/><rect x="-37.5" width="450" fill="#ffffff" y="-37.499999" height="449.999989" fill-opacity="1"/><g clip-path="url(#ceed282d35)"><rect x="-37.5" width="450" fill="#000000" y="-37.499999" height="449.999989" fill-opacity="1"/></g><g clip-path="url(#4bff032f30)"><path fill="#f87c2f" d="M 137.722656 104.875 L 138.757812 104.875 C 142.382812 90.941406 151.65625 79.570312 164.066406 72.859375 L 164.066406 91.433594 L 175.957031 91.433594 L 175.957031 66.125 C 175.957031 58.378906 182.144531 52.707031 189.371094 52.707031 C 196.597656 52.707031 202.273438 58.378906 202.273438 66.125 L 202.273438 91.433594 L 214.160156 91.433594 L 214.160156 72.859375 C 226.570312 79.570312 235.84375 90.941406 239.46875 104.875 L 240.507812 104.875 C 247.214844 104.875 252.394531 110.03125 252.394531 116.25 L 252.394531 118.839844 L 126.347656 118.839844 L 126.347656 116.25 C 126.347656 110.03125 131.503906 104.875 137.722656 104.875 Z M 174.890625 129.148438 C 177.484375 129.148438 179.527344 131.21875 179.527344 133.785156 C 179.527344 136.347656 177.457031 138.417969 174.890625 138.417969 C 172.328125 138.417969 170.253906 136.347656 170.253906 133.785156 C 170.253906 131.21875 172.328125 129.148438 174.890625 129.148438 Z M 189.371094 129.148438 C 191.964844 129.148438 194.007812 131.21875 194.007812 133.785156 C 194.007812 136.347656 191.9375 138.417969 189.371094 138.417969 C 186.808594 138.417969 184.738281 136.347656 184.738281 133.785156 C 184.738281 131.21875 186.78125 129.148438 189.371094 129.148438 Z M 203.828125 129.148438 C 206.417969 129.148438 208.460938 131.21875 208.460938 133.785156 C 208.460938 136.347656 206.390625 138.417969 203.828125 138.417969 C 201.261719 138.417969 199.191406 136.347656 199.191406 133.785156 C 199.191406 131.21875 201.234375 129.148438 203.828125 129.148438 Z M 189.371094 189.0625 L 204.34375 168.390625 C 224.496094 162.199219 239.46875 144.636719 241.023438 122.929688 L 224.496094 122.929688 C 222.425781 140.492188 207.453125 153.910156 189.371094 153.910156 C 171.292969 153.910156 156.292969 140.519531 153.730469 122.957031 L 137.203125 122.957031 C 138.757812 144.636719 153.730469 162.199219 173.882812 168.417969 Z M 189.371094 189.0625 " fill-opacity="1" fill-rule="nonzero"/></g><g fill="#ffffff" fill-opacity="1"><g transform="translate(106.748761, 235.123228)"><g><path d="M 10.875 0.484375 C 9.019531 0.484375 7.378906 0.148438 5.953125 -0.515625 C 4.535156 -1.191406 3.425781 -2.15625 2.625 -3.40625 C 1.820312 -4.664062 1.421875 -6.164062 1.421875 -7.90625 L 6.765625 -7.90625 C 6.765625 -6.726562 7.175781 -5.851562 8 -5.28125 C 8.820312 -4.707031 9.769531 -4.421875 10.84375 -4.421875 C 11.519531 -4.421875 12.148438 -4.53125 12.734375 -4.75 C 13.328125 -4.976562 13.816406 -5.304688 14.203125 -5.734375 C 14.585938 -6.160156 14.78125 -6.675781 14.78125 -7.28125 C 14.78125 -7.914062 14.554688 -8.410156 14.109375 -8.765625 C 13.671875 -9.128906 13.078125 -9.425781 12.328125 -9.65625 C 11.585938 -9.882812 10.78125 -10.101562 9.90625 -10.3125 C 9 -10.519531 8.066406 -10.773438 7.109375 -11.078125 C 6.160156 -11.378906 5.273438 -11.78125 4.453125 -12.28125 C 3.640625 -12.78125 2.988281 -13.453125 2.5 -14.296875 C 2.019531 -15.148438 1.78125 -16.226562 1.78125 -17.53125 C 1.78125 -19.882812 2.570312 -21.691406 4.15625 -22.953125 C 5.75 -24.222656 7.90625 -24.859375 10.625 -24.859375 C 13.414062 -24.859375 15.578125 -24.15625 17.109375 -22.75 C 18.648438 -21.34375 19.421875 -19.429688 19.421875 -17.015625 L 14.1875 -17.015625 C 14.1875 -18.054688 13.8125 -18.828125 13.0625 -19.328125 C 12.320312 -19.828125 11.46875 -20.078125 10.5 -20.078125 C 9.632812 -20.078125 8.84375 -19.890625 8.125 -19.515625 C 7.40625 -19.148438 7.046875 -18.570312 7.046875 -17.78125 C 7.046875 -17.195312 7.257812 -16.734375 7.6875 -16.390625 C 8.113281 -16.054688 8.679688 -15.78125 9.390625 -15.5625 C 10.097656 -15.34375 10.882812 -15.128906 11.75 -14.921875 C 12.675781 -14.691406 13.625 -14.414062 14.59375 -14.09375 C 15.570312 -13.78125 16.476562 -13.359375 17.3125 -12.828125 C 18.15625 -12.296875 18.835938 -11.585938 19.359375 -10.703125 C 19.890625 -9.816406 20.15625 -8.703125 20.15625 -7.359375 C 20.15625 -5.585938 19.726562 -4.117188 18.875 -2.953125 C 18.03125 -1.796875 16.910156 -0.929688 15.515625 -0.359375 C 14.117188 0.203125 12.570312 0.484375 10.875 0.484375 Z M 10.875 0.484375 "/></g></g></g><g fill="#ffffff" fill-opacity="1"><g transform="translate(128.323328, 235.123228)"><g><path d="M 12.171875 -24.40625 C 13.816406 -24.40625 15.285156 -24.035156 16.578125 -23.296875 C 17.867188 -22.566406 18.894531 -21.566406 19.65625 -20.296875 C 20.425781 -19.035156 20.8125 -17.601562 20.8125 -16 C 20.8125 -14.394531 20.429688 -12.957031 19.671875 -11.6875 C 18.921875 -10.425781 17.894531 -9.4375 16.59375 -8.71875 C 15.289062 -8 13.816406 -7.640625 12.171875 -7.640625 L 8.09375 -7.640625 L 8.09375 0 L 2.78125 0 L 2.78125 -24.40625 Z M 11.953125 -12.515625 C 13.003906 -12.515625 13.847656 -12.84375 14.484375 -13.5 C 15.117188 -14.164062 15.4375 -15 15.4375 -16 C 15.4375 -17.019531 15.117188 -17.859375 14.484375 -18.515625 C 13.847656 -19.179688 13.003906 -19.515625 11.953125 -19.515625 L 8.09375 -19.515625 L 8.09375 -12.515625 Z M 11.953125 -12.515625 "/></g></g></g><g fill="#ffffff" fill-opacity="1"><g transform="translate(150.002463, 235.123228)"><g><path d="M 14.359375 0.515625 C 12.503906 0.515625 10.785156 0.195312 9.203125 -0.4375 C 7.617188 -1.070312 6.238281 -1.960938 5.0625 -3.109375 C 3.894531 -4.265625 2.984375 -5.613281 2.328125 -7.15625 C 1.679688 -8.707031 1.359375 -10.390625 1.359375 -12.203125 C 1.359375 -14.015625 1.679688 -15.691406 2.328125 -17.234375 C 2.984375 -18.785156 3.894531 -20.132812 5.0625 -21.28125 C 6.238281 -22.425781 7.617188 -23.316406 9.203125 -23.953125 C 10.785156 -24.597656 12.503906 -24.921875 14.359375 -24.921875 C 16.222656 -24.921875 17.941406 -24.597656 19.515625 -23.953125 C 21.097656 -23.316406 22.46875 -22.425781 23.625 -21.28125 C 24.789062 -20.132812 25.695312 -18.785156 26.34375 -17.234375 C 27 -15.691406 27.328125 -14.015625 27.328125 -12.203125 C 27.328125 -10.390625 27 -8.707031 26.34375 -7.15625 C 25.695312 -5.613281 24.789062 -4.265625 23.625 -3.109375 C 22.46875 -1.960938 21.097656 -1.070312 19.515625 -0.4375 C 17.941406 0.195312 16.222656 0.515625 14.359375 0.515625 Z M 14.359375 -4.46875 C 15.828125 -4.46875 17.132812 -4.800781 18.28125 -5.46875 C 19.4375 -6.144531 20.34375 -7.0625 21 -8.21875 C 21.664062 -9.382812 22 -10.710938 22 -12.203125 C 22 -13.660156 21.664062 -14.976562 21 -16.15625 C 20.34375 -17.332031 19.4375 -18.253906 18.28125 -18.921875 C 17.132812 -19.597656 15.828125 -19.9375 14.359375 -19.9375 C 12.921875 -19.9375 11.617188 -19.597656 10.453125 -18.921875 C 9.296875 -18.253906 8.378906 -17.332031 7.703125 -16.15625 C 7.023438 -14.976562 6.6875 -13.660156 6.6875 -12.203125 C 6.6875 -10.734375 7.023438 -9.410156 7.703125 -8.234375 C 8.378906 -7.066406 9.296875 -6.144531 10.453125 -5.46875 C 11.617188 -4.800781 12.921875 -4.46875 14.359375 -4.46875 Z M 14.359375 -4.46875 "/></g></g></g><g fill="#ffffff" fill-opacity="1"><g transform="translate(178.687224, 235.123228)"><g><path d="M 18.265625 -24.40625 L 23.421875 -24.40625 L 23.421875 0 L 19.03125 0 L 7.984375 -15.234375 L 7.984375 0 L 2.78125 0 L 2.78125 -24.40625 L 7.5625 -24.40625 L 18.265625 -9.515625 Z M 18.265625 -24.40625 "/></g></g></g><g fill="#ffffff" fill-opacity="1"><g transform="translate(204.897365, 235.123228)"><g><path d="M 12.03125 -24.40625 C 13.8125 -24.40625 15.457031 -24.101562 16.96875 -23.5 C 18.488281 -22.894531 19.796875 -22.046875 20.890625 -20.953125 C 21.992188 -19.859375 22.851562 -18.570312 23.46875 -17.09375 C 24.09375 -15.625 24.40625 -14.003906 24.40625 -12.234375 C 24.40625 -10.472656 24.09375 -8.847656 23.46875 -7.359375 C 22.851562 -5.867188 21.992188 -4.570312 20.890625 -3.46875 C 19.796875 -2.363281 18.488281 -1.507812 16.96875 -0.90625 C 15.457031 -0.300781 13.8125 0 12.03125 0 L 2.78125 0 L 2.78125 -24.40625 Z M 11.890625 -4.921875 C 13.285156 -4.921875 14.515625 -5.234375 15.578125 -5.859375 C 16.648438 -6.484375 17.488281 -7.347656 18.09375 -8.453125 C 18.695312 -9.554688 19 -10.816406 19 -12.234375 C 19 -13.648438 18.695312 -14.90625 18.09375 -16 C 17.488281 -17.09375 16.648438 -17.945312 15.578125 -18.5625 C 14.515625 -19.175781 13.285156 -19.484375 11.890625 -19.484375 L 8.09375 -19.484375 L 8.09375 -4.921875 Z M 11.890625 -4.921875 "/></g></g></g><g fill="#ffffff" fill-opacity="1"><g transform="translate(230.72411, 235.123228)"><g><path d="M 8.09375 -4.921875 L 17.8125 -4.921875 L 17.8125 0 L 2.78125 0 L 2.78125 -24.40625 L 17.4375 -24.40625 L 17.4375 -19.515625 L 8.09375 -19.515625 L 8.09375 -14.703125 L 16.515625 -14.703125 L 16.515625 -9.9375 L 8.09375 -9.9375 Z M 8.09375 -4.921875 "/></g></g></g><g fill="#ffffff" fill-opacity="1"><g transform="translate(250.207441, 235.123228)"><g><path d="M 21.6875 0 L 15.75 0 L 10.953125 -8.359375 L 6.0625 0 L 0.140625 0 L 7.734375 -12.796875 L 0.625 -24.40625 L 6.546875 -24.40625 L 10.90625 -16.875 L 15.296875 -24.40625 L 21.09375 -24.40625 L 14.078125 -12.625 Z M 21.6875 0 "/></g></g></g><g fill="#db6d2a" fill-opacity="1"><g transform="translate(137.935321, 271.639084)"><g><path d="M 3.84375 0.171875 C 3.1875 0.171875 2.609375 0.0507812 2.109375 -0.1875 C 1.609375 -0.425781 1.210938 -0.765625 0.921875 -1.203125 C 0.640625 -1.648438 0.5 -2.179688 0.5 -2.796875 L 2.390625 -2.796875 C 2.390625 -2.378906 2.535156 -2.066406 2.828125 -1.859375 C 3.117188 -1.660156 3.457031 -1.5625 3.84375 -1.5625 C 4.082031 -1.5625 4.304688 -1.597656 4.515625 -1.671875 C 4.722656 -1.753906 4.894531 -1.875 5.03125 -2.03125 C 5.164062 -2.1875 5.234375 -2.367188 5.234375 -2.578125 C 5.234375 -2.796875 5.15625 -2.96875 5 -3.09375 C 4.84375 -3.226562 4.628906 -3.335938 4.359375 -3.421875 C 4.097656 -3.503906 3.8125 -3.582031 3.5 -3.65625 C 3.1875 -3.726562 2.859375 -3.816406 2.515625 -3.921875 C 2.179688 -4.023438 1.867188 -4.164062 1.578125 -4.34375 C 1.285156 -4.519531 1.050781 -4.757812 0.875 -5.0625 C 0.707031 -5.363281 0.625 -5.742188 0.625 -6.203125 C 0.625 -7.035156 0.90625 -7.675781 1.46875 -8.125 C 2.039062 -8.570312 2.804688 -8.796875 3.765625 -8.796875 C 4.753906 -8.796875 5.519531 -8.546875 6.0625 -8.046875 C 6.601562 -7.554688 6.875 -6.882812 6.875 -6.03125 L 5.03125 -6.03125 C 5.03125 -6.394531 4.894531 -6.664062 4.625 -6.84375 C 4.363281 -7.019531 4.0625 -7.109375 3.71875 -7.109375 C 3.414062 -7.109375 3.132812 -7.039062 2.875 -6.90625 C 2.625 -6.78125 2.5 -6.578125 2.5 -6.296875 C 2.5 -6.085938 2.570312 -5.921875 2.71875 -5.796875 C 2.875 -5.679688 3.078125 -5.582031 3.328125 -5.5 C 3.578125 -5.425781 3.851562 -5.351562 4.15625 -5.28125 C 4.488281 -5.195312 4.828125 -5.097656 5.171875 -4.984375 C 5.515625 -4.878906 5.832031 -4.734375 6.125 -4.546875 C 6.425781 -4.359375 6.671875 -4.109375 6.859375 -3.796875 C 7.046875 -3.484375 7.140625 -3.085938 7.140625 -2.609375 C 7.140625 -1.984375 6.988281 -1.460938 6.6875 -1.046875 C 6.382812 -0.640625 5.984375 -0.332031 5.484375 -0.125 C 4.992188 0.0703125 4.445312 0.171875 3.84375 0.171875 Z M 3.84375 0.171875 "/></g></g></g><g fill="#db6d2a" fill-opacity="1"><g transform="translate(155.440587, 271.639084)"><g><path d="M 8.1875 -8.640625 L 5.140625 -3.5 L 5.140625 0 L 3.21875 0 L 3.21875 -3.5 L 0.203125 -8.640625 L 2.203125 -8.640625 L 4.203125 -5.1875 L 6.203125 -8.640625 Z M 8.1875 -8.640625 "/></g></g></g><g fill="#db6d2a" fill-opacity="1"><g transform="translate(173.685541, 271.639084)"><g><path d="M 3.84375 0.171875 C 3.1875 0.171875 2.609375 0.0507812 2.109375 -0.1875 C 1.609375 -0.425781 1.210938 -0.765625 0.921875 -1.203125 C 0.640625 -1.648438 0.5 -2.179688 0.5 -2.796875 L 2.390625 -2.796875 C 2.390625 -2.378906 2.535156 -2.066406 2.828125 -1.859375 C 3.117188 -1.660156 3.457031 -1.5625 3.84375 -1.5625 C 4.082031 -1.5625 4.304688 -1.597656 4.515625 -1.671875 C 4.722656 -1.753906 4.894531 -1.875 5.03125 -2.03125 C 5.164062 -2.1875 5.234375 -2.367188 5.234375 -2.578125 C 5.234375 -2.796875 5.15625 -2.96875 5 -3.09375 C 4.84375 -3.226562 4.628906 -3.335938 4.359375 -3.421875 C 4.097656 -3.503906 3.8125 -3.582031 3.5 -3.65625 C 3.1875 -3.726562 2.859375 -3.816406 2.515625 -3.921875 C 2.179688 -4.023438 1.867188 -4.164062 1.578125 -4.34375 C 1.285156 -4.519531 1.050781 -4.757812 0.875 -5.0625 C 0.707031 -5.363281 0.625 -5.742188 0.625 -6.203125 C 0.625 -7.035156 0.90625 -7.675781 1.46875 -8.125 C 2.039062 -8.570312 2.804688 -8.796875 3.765625 -8.796875 C 4.753906 -8.796875 5.519531 -8.546875 6.0625 -8.046875 C 6.601562 -7.554688 6.875 -6.882812 6.875 -6.03125 L 5.03125 -6.03125 C 5.03125 -6.394531 4.894531 -6.664062 4.625 -6.84375 C 4.363281 -7.019531 4.0625 -7.109375 3.71875 -7.109375 C 3.414062 -7.109375 3.132812 -7.039062 2.875 -6.90625 C 2.625 -6.78125 2.5 -6.578125 2.5 -6.296875 C 2.5 -6.085938 2.570312 -5.921875 2.71875 -5.796875 C 2.875 -5.679688 3.078125 -5.582031 3.328125 -5.5 C 3.578125 -5.425781 3.851562 -5.351562 4.15625 -5.28125 C 4.488281 -5.195312 4.828125 -5.097656 5.171875 -4.984375 C 5.515625 -4.878906 5.832031 -4.734375 6.125 -4.546875 C 6.425781 -4.359375 6.671875 -4.109375 6.859375 -3.796875 C 7.046875 -3.484375 7.140625 -3.085938 7.140625 -2.609375 C 7.140625 -1.984375 6.988281 -1.460938 6.6875 -1.046875 C 6.382812 -0.640625 5.984375 -0.332031 5.484375 -0.125 C 4.992188 0.0703125 4.445312 0.171875 3.84375 0.171875 Z M 3.84375 0.171875 "/></g></g></g><g fill="#db6d2a" fill-opacity="1"><g transform="translate(191.190806, 271.639084)"><g><path d="M 6.953125 -8.640625 L 6.953125 -6.90625 L 4.546875 -6.90625 L 4.546875 0 L 2.671875 0 L 2.671875 -6.90625 L 0.265625 -6.90625 L 0.265625 -8.640625 Z M 6.953125 -8.640625 "/></g></g></g><g fill="#db6d2a" fill-opacity="1"><g transform="translate(208.264583, 271.639084)"><g><path d="M 2.859375 -1.734375 L 6.3125 -1.734375 L 6.3125 0 L 0.984375 0 L 0.984375 -8.640625 L 6.171875 -8.640625 L 6.171875 -6.90625 L 2.859375 -6.90625 L 2.859375 -5.203125 L 5.84375 -5.203125 L 5.84375 -3.515625 L 2.859375 -3.515625 Z M 2.859375 -1.734375 "/></g></g></g><g fill="#db6d2a" fill-opacity="1"><g transform="translate(225.030159, 271.639084)"><g><path d="M 11.578125 0 L 9.671875 0 L 8.828125 -5.640625 L 6.25 -0.015625 L 5.796875 -0.015625 L 3.203125 -5.640625 L 2.359375 0 L 0.4375 0 L 1.796875 -8.640625 L 3.671875 -8.640625 L 6.015625 -3.34375 L 8.359375 -8.640625 L 10.234375 -8.640625 Z M 11.578125 0 "/></g></g></g></svg>